<!DOCTYPE svg PUBLIC "-//W3C//DTD SVG 20010904//EN" "http://www.w3.org/TR/2001/REC-SVG-20010904/DTD/svg10.dtd">
<svg version="1.0" xmlns="http://www.w3.org/2000/svg" width="247px" height="238px" viewBox="0 0 2470 2380" preserveAspectRatio="xMidYMid meet">
<g id="layer101" fill="#030303" stroke="none">
 <path d="M0 1190 l0 -1190 1235 0 1235 0 0 1190 0 1190 -1235 0 -1235 0 0 -1190z"/>
 </g>
<g id="layer102" fill="#313131" stroke="none">
 <path d="M0 1190 l0 -1190 1235 0 1235 0 0 1190 0 1190 -1235 0 -1235 0 0 -1190z m1472 150 c29 -38 56 -70 60 -70 5 0 8 -4 8 -10 0 -14 49 -84 66 -93 8 -4 14 -13 14 -20 0 -7 23 -41 50 -77 38 -50 45 -66 33 -69 -20 -4 -66 46 -127 138 -26 39 -52 71 -57 71 -5 0 -9 7 -9 15 0 9 -7 18 -15 21 -8 4 -15 10 -15 16 0 5 -20 38 -45 72 -41 57 -46 76 -23 76 4 0 31 -31 60 -70z m-601 46 c84 -35 108 -120 53 -184 -27 -32 -37 -36 -90 -40 l-59 -4 0 -49 0 -49 78 0 c76 0 77 0 77 -25 l0 -25 -110 0 -110 0 0 88 c0 49 5 93 11 99 6 6 30 8 54 5 107 -12 154 98 62 141 -36 17 -89 14 -114 -6 -10 -7 -13 -3 -13 13 0 13 8 29 18 36 23 18 101 18 143 0z m359 -11 c37 -23 58 -61 52 -92 -1 -6 2 -14 8 -18 16 -10 12 -136 -5 -169 -8 -15 -15 -34 -15 -41 0 -25 -53 -49 -112 -50 -51 0 -60 3 -91 34 -60 57 -73 192 -27 293 31 70 117 89 190 43z m498 -3 c26 -28 30 -50 23 -129 -2 -27 -49 -46 -96 -39 -36 6 -47 13 -60 38 -24 49 -19 91 14 127 39 41 83 42 119 3z m-263 -186 c39 -20 53 -45 50 -91 -4 -66 -14 -84 -51 -91 -43 -8 -79 1 -102 26 -16 17 -17 29 -11 81 4 33 9 61 10 62 2 1 13 7 24 14 27 16 47 16 80 -1z"/>
 <path d="M1127 1349 c-38 -22 -56 -132 -37 -218 16 -69 25 -81 59 -81 33 0 63 20 69 46 9 43 14 146 8 176 -12 61 -61 99 -99 77z"/>
 <path d="M1650 1360 c-23 -14 -21 -109 2 -121 12 -6 25 -6 37 0 15 9 18 20 16 63 -1 29 -3 56 -4 61 -1 10 -33 9 -51 -3z"/>
 <path d="M1394 1146 c-3 -7 -4 -35 -2 -61 4 -58 26 -79 55 -53 16 15 22 59 14 121 -2 13 -61 7 -67 -7z"/>
 </g>
<g id="layer103" fill="#fdfd0c" stroke="none">
 <path d="M1 1190 l0 -1189 1234 0 1235 0 0 1189 0 1189 -1235 1 -1234 0 0 -1190z m1487 142 c31 -43 98 -133 147 -201 50 -67 92 -126 93 -131 2 -6 -8 -10 -22 -10 -28 0 -28 0 -163 185 -146 198 -163 222 -163 229 0 3 11 6 25 6 20 0 37 -17 83 -78z m-562 24 c28 -32 34 -48 34 -84 0 -37 -6 -50 -34 -78 -31 -31 -40 -34 -91 -34 l-56 0 3 -47 3 -48 73 -3 72 -3 0 -30 0 -30 -107 3 -108 3 -3 103 c-2 77 0 102 10 103 7 0 32 0 55 -1 73 -3 114 40 93 95 -8 22 -53 43 -80 38 -88 -14 -90 -14 -90 11 0 37 26 47 114 44 78 -3 79 -4 112 -42z m298 32 c39 -17 70 -91 74 -173 5 -86 -10 -146 -46 -185 -52 -58 -165 -48 -204 18 -51 86 -44 268 13 324 23 24 36 28 83 28 30 0 66 -5 80 -12z m511 -13 c31 -30 35 -110 8 -144 -23 -29 -83 -42 -113 -26 -51 27 -67 120 -29 169 29 36 99 37 134 1z m-245 -205 c52 -55 31 -163 -34 -176 -74 -13 -116 24 -116 103 0 44 5 59 25 78 35 36 88 34 125 -5z"/>
 <path d="M1133 1339 c-11 -4 -26 -22 -32 -40 -16 -45 -14 -163 3 -204 19 -45 59 -57 89 -27 17 18 22 37 25 109 6 130 -23 185 -85 162z"/>
 <path d="M1650 1355 c-18 -21 -14 -96 6 -115 14 -13 17 -13 33 7 20 24 21 84 1 108 -16 19 -24 19 -40 0z"/>
 <path d="M1400 1141 c-14 -28 -12 -74 4 -97 32 -42 69 25 52 92 -8 29 -41 32 -56 5z"/>
 </g>
<g id="layer104" fill="#fbfc50" stroke="none">
 <path d="M0 1865 c0 -337 3 -515 10 -515 6 0 11 8 12 18 2 26 6 46 8 52 1 3 4 14 5 25 5 34 61 187 94 255 49 99 127 216 171 256 22 20 40 41 40 46 0 13 26 38 39 38 6 0 20 14 33 30 12 17 25 30 30 30 4 0 35 20 67 44 70 51 214 126 288 151 29 9 55 21 59 26 3 5 9 7 14 4 5 -3 21 0 37 6 15 6 37 12 48 14 57 7 95 18 95 26 0 5 -225 9 -525 9 l-525 0 0 -515z"/>
 <path d="M1075 2370 c-19 -8 -19 -9 2 -9 12 -1 25 4 28 9 7 12 -2 12 -30 0z"/>
 <path d="M1368 2368 c5 -5 16 -8 23 -6 8 3 3 7 -10 11 -17 4 -21 3 -13 -5z"/>
 <path d="M1425 2371 c-5 -8 64 -27 127 -35 13 -2 40 -10 61 -19 21 -9 41 -16 45 -15 17 3 207 -90 263 -129 26 -18 49 -33 52 -33 3 0 25 -18 49 -40 24 -22 47 -40 52 -40 13 0 66 -51 66 -62 0 -5 10 -19 21 -31 36 -37 126 -160 149 -202 11 -22 25 -47 30 -55 37 -61 106 -267 101 -302 -1 -9 2 -19 8 -22 5 -3 7 -16 3 -28 -3 -14 -2 -19 6 -14 9 5 12 143 12 522 l0 514 -519 0 c-308 0 -522 -4 -526 -9z"/>
 <path d="M1094 2278 c-3 -5 -14 -6 -23 -3 -37 11 -224 -43 -342 -98 -89 -43 -199 -113 -199 -127 0 -5 -6 -10 -14 -10 -8 0 -24 -13 -37 -30 -13 -16 -29 -30 -35 -30 -7 0 -28 -19 -48 -42 -20 -24 -46 -52 -56 -63 -11 -12 -20 -24 -20 -27 0 -4 -12 -20 -26 -35 -14 -15 -33 -42 -43 -59 -82 -157 -128 -275 -135 -346 -2 -19 -5 -39 -8 -44 -13 -22 -16 -232 -6 -319 8 -63 28 -147 39 -161 5 -6 6 -13 3 -16 -8 -9 93 -214 138 -281 39 -57 201 -227 217 -227 5 0 11 -6 14 -14 14 -35 212 -146 339 -189 71 -24 106 -33 178 -42 14 -2 25 -4 25 -5 0 -6 99 -13 175 -13 73 -1 185 7 185 12 0 1 21 4 46 6 25 2 59 9 75 16 16 6 36 13 44 15 115 22 370 165 427 241 14 18 31 33 37 33 14 0 56 45 56 60 0 5 9 14 20 20 11 6 20 17 20 25 0 8 5 15 10 15 14 0 91 120 133 210 35 75 83 227 74 236 -3 3 1 24 7 47 14 50 12 300 -2 338 -6 15 -8 29 -6 32 8 8 -44 174 -74 237 -27 57 -85 154 -108 180 -7 8 -22 25 -34 38 -11 12 -20 26 -20 30 0 8 -125 132 -133 132 -3 0 -19 14 -37 30 -18 17 -37 30 -42 30 -6 0 -24 12 -41 26 -48 40 -260 139 -285 132 -4 -1 -17 4 -30 11 -13 7 -29 10 -37 8 -7 -3 -17 -1 -23 5 -6 6 -35 12 -64 14 -29 1 -53 3 -53 5 0 6 -277 4 -281 -3z m394 -946 c31 -43 98 -133 147 -201 50 -67 92 -126 93 -131 2 -6 -8 -10 -22 -10 -28 0 -28 0 -163 185 -146 198 -163 222 -163 229 0 3 11 6 25 6 20 0 37 -17 83 -78z m-562 24 c28 -32 34 -48 34 -84 0 -37 -6 -50 -34 -78 -31 -31 -40 -34 -91 -34 l-56 0 3 -47 3 -48 73 -3 72 -3 0 -30 0 -30 -107 3 -108 3 -3 103 c-2 77 0 102 10 103 7 0 32 0 55 -1 73 -3 114 40 93 95 -8 22 -53 43 -80 38 -88 -14 -90 -14 -90 11 0 37 26 47 114 44 78 -3 79 -4 112 -42z m298 32 c39 -17 70 -91 74 -173 5 -86 -10 -146 -46 -185 -52 -58 -165 -48 -204 18 -51 86 -44 268 13 324 23 24 36 28 83 28 30 0 66 -5 80 -12z m511 -13 c31 -30 35 -110 8 -144 -23 -29 -83 -42 -113 -26 -51 27 -67 120 -29 169 29 36 99 37 134 1z m-245 -205 c52 -55 31 -163 -34 -176 -74 -13 -116 24 -116 103 0 44 5 59 25 78 35 36 88 34 125 -5z"/>
 <path d="M1133 1339 c-11 -4 -26 -22 -32 -40 -16 -45 -14 -163 3 -204 19 -45 59 -57 89 -27 17 18 22 37 25 109 6 130 -23 185 -85 162z"/>
 <path d="M1650 1355 c-18 -21 -14 -96 6 -115 14 -13 17 -13 33 7 20 24 21 84 1 108 -16 19 -24 19 -40 0z"/>
 <path d="M1400 1141 c-14 -28 -12 -74 4 -97 32 -42 69 25 52 92 -8 29 -41 32 -56 5z"/>
 <path d="M6 1294 c-4 -20 -5 -38 -3 -40 3 -3 8 11 11 32 4 20 5 38 3 40 -3 3 -8 -11 -11 -32z"/>
 <path d="M2461 1294 c0 -11 3 -14 6 -6 3 7 2 16 -1 19 -3 4 -6 -2 -5 -13z"/>
 <path d="M2 1120 c0 -14 4 -36 8 -50 l8 -25 0 25 c0 14 -4 36 -8 50 l-8 25 0 -25z"/>
 <path d="M2461 1084 c0 -11 3 -14 6 -6 3 7 2 16 -1 19 -3 4 -6 -2 -5 -13z"/>
 <path d="M2453 1033 c3 -13 1 -26 -5 -29 -5 -3 -7 -15 -5 -26 3 -11 2 -28 -3 -37 -4 -9 -20 -54 -35 -101 -38 -123 -125 -287 -187 -354 -10 -11 -18 -22 -18 -26 0 -7 -169 -180 -176 -180 -4 0 -27 -15 -53 -34 -71 -51 -158 -99 -251 -138 -116 -48 -124 -51 -133 -50 -4 1 -23 -4 -41 -12 -19 -8 -37 -12 -40 -9 -3 3 -13 2 -23 -2 -17 -8 -27 -10 -65 -13 -10 -1 -18 -6 -18 -12 0 -7 185 -10 535 -10 l535 0 0 513 c0 348 -4 517 -11 527 -9 12 -10 11 -6 -7z"/>
 <path d="M0 515 l0 -515 534 0 c303 0 537 4 540 9 3 5 -31 16 -77 24 -103 19 -213 56 -315 105 -84 41 -209 121 -238 153 -9 10 -20 19 -24 19 -11 0 -140 125 -140 136 -1 5 -23 38 -50 74 -62 81 -120 191 -155 295 -15 44 -30 87 -33 95 -3 8 -4 19 -3 24 1 4 -3 14 -9 20 -5 7 -7 16 -4 19 9 9 -5 57 -16 57 -6 0 -10 -185 -10 -515z"/>
 <path d="M1091 16 c2 -2 27 -6 54 -10 34 -4 43 -3 30 3 -19 9 -93 15 -84 7z"/>
 <path d="M1300 10 l-25 -8 25 0 c14 0 39 4 55 8 l30 8 -30 0 c-16 0 -41 -4 -55 -8z"/>
 </g>
<g id="layer105" fill="#d1d1d1" stroke="none">
 <path d="M0 1865 c0 -337 3 -515 10 -515 6 0 10 17 10 37 0 38 3 49 41 168 34 107 131 294 169 325 3 3 17 21 29 40 65 96 266 258 406 327 120 59 289 113 355 113 16 0 30 5 30 10 0 7 -182 10 -525 10 l-525 0 0 -515z"/>
 <path d="M1425 2370 c-4 -6 9 -10 31 -10 38 0 45 -2 174 -41 304 -92 581 -329 719 -614 60 -126 67 -144 105 -300 13 -55 14 -17 15 458 l1 517 -519 0 c-336 0 -522 -4 -526 -10z"/>
 <path d="M1030 2263 c-129 -24 -135 -25 -145 -32 -5 -4 -30 -14 -55 -21 -57 -18 -176 -80 -261 -137 -85 -56 -191 -158 -257 -248 -54 -71 -152 -258 -152 -287 0 -9 -4 -19 -9 -22 -5 -3 -11 -20 -14 -38 -3 -18 -11 -55 -17 -83 -18 -80 -24 -272 -10 -350 68 -407 324 -717 715 -868 82 -32 121 -42 240 -64 59 -12 301 -9 370 4 243 44 430 140 608 312 156 151 252 322 308 551 18 74 18 346 0 425 -60 263 -193 473 -403 635 -143 111 -330 193 -512 225 -108 18 -303 18 -406 -2z m458 -931 c31 -43 98 -133 147 -201 50 -67 92 -126 93 -131 2 -6 -8 -10 -22 -10 -28 0 -28 0 -163 185 -146 198 -163 222 -163 229 0 3 11 6 25 6 20 0 37 -17 83 -78z m-562 24 c28 -32 34 -48 34 -84 0 -37 -6 -50 -34 -78 -31 -31 -40 -34 -91 -34 l-56 0 3 -47 3 -48 73 -3 72 -3 0 -30 0 -30 -107 3 -108 3 -3 103 c-2 77 0 102 10 103 7 0 32 0 55 -1 73 -3 114 40 93 95 -8 22 -53 43 -80 38 -88 -14 -90 -14 -90 11 0 37 26 47 114 44 78 -3 79 -4 112 -42z m298 32 c39 -17 70 -91 74 -173 5 -86 -10 -146 -46 -185 -52 -58 -165 -48 -204 18 -51 86 -44 268 13 324 23 24 36 28 83 28 30 0 66 -5 80 -12z m511 -13 c31 -30 35 -110 8 -144 -23 -29 -83 -42 -113 -26 -51 27 -67 120 -29 169 29 36 99 37 134 1z m-245 -205 c52 -55 31 -163 -34 -176 -74 -13 -116 24 -116 103 0 44 5 59 25 78 35 36 88 34 125 -5z"/>
 <path d="M1133 1339 c-11 -4 -26 -22 -32 -40 -16 -45 -14 -163 3 -204 19 -45 59 -57 89 -27 17 18 22 37 25 109 6 130 -23 185 -85 162z"/>
 <path d="M1650 1355 c-18 -21 -14 -96 6 -115 14 -13 17 -13 33 7 20 24 21 84 1 108 -16 19 -24 19 -40 0z"/>
 <path d="M1400 1141 c-14 -28 -12 -74 4 -97 32 -42 69 25 52 92 -8 29 -41 32 -56 5z"/>
 <path d="M0 515 l0 -515 534 0 c346 0 537 4 541 10 4 6 -9 10 -31 10 -20 0 -55 5 -78 11 -22 6 -59 15 -81 21 -22 5 -48 14 -57 19 -10 5 -24 9 -31 9 -7 0 -41 14 -75 30 -34 17 -64 30 -66 30 -3 0 -29 15 -58 32 -218 133 -374 300 -479 515 -52 104 -99 253 -99 310 0 18 -4 33 -10 33 -7 0 -10 -178 -10 -515z"/>
 <path d="M2456 993 c-32 -184 -135 -400 -259 -546 -58 -69 -73 -84 -142 -146 -87 -78 -273 -187 -385 -225 -87 -29 -200 -56 -235 -56 -19 0 -35 -4 -35 -10 0 -7 185 -10 535 -10 l535 0 0 515 c0 283 -2 515 -4 515 -2 0 -7 -17 -10 -37z"/>
 </g>
<g id="layer106" fill="#ffffd1" stroke="none">
 <path d="M0 1865 c0 -337 3 -515 10 -515 6 0 10 17 10 37 0 38 3 49 41 168 34 107 131 294 169 325 3 3 17 21 29 40 65 96 266 258 406 327 120 59 289 113 355 113 16 0 30 5 30 10 0 7 -182 10 -525 10 l-525 0 0 -515z"/>
 <path d="M1425 2370 c-4 -6 9 -10 31 -10 38 0 45 -2 174 -41 304 -92 581 -329 719 -614 60 -126 67 -144 105 -300 13 -55 14 -17 15 458 l1 517 -519 0 c-336 0 -522 -4 -526 -10z"/>
 <path d="M1030 2263 c-129 -24 -135 -25 -145 -32 -5 -4 -30 -14 -55 -21 -57 -18 -176 -80 -261 -137 -85 -56 -191 -158 -257 -248 -54 -71 -152 -258 -152 -287 0 -9 -4 -19 -9 -22 -5 -3 -11 -20 -14 -38 -3 -18 -11 -55 -17 -83 -18 -80 -24 -272 -10 -350 68 -407 324 -717 715 -868 82 -32 121 -42 240 -64 59 -12 301 -9 370 4 243 44 430 140 608 312 156 151 252 322 308 551 18 74 18 346 0 425 -60 263 -193 473 -403 635 -143 111 -330 193 -512 225 -108 18 -303 18 -406 -2z m429 -880 c17 -21 31 -42 31 -47 0 -5 6 -14 14 -20 29 -23 237 -317 231 -326 -3 -6 -17 -10 -31 -10 -18 0 -36 16 -72 61 -26 33 -54 73 -62 87 -8 15 -20 31 -26 37 -30 27 -175 236 -169 245 14 22 54 9 84 -27z m-577 18 c19 -3 70 -62 78 -92 11 -37 5 -85 -13 -110 -21 -28 -65 -51 -86 -44 -10 3 -22 1 -26 -5 -4 -6 -15 -8 -25 -5 -14 5 -19 -1 -22 -30 -6 -49 9 -58 85 -53 l64 4 -2 -36 -3 -35 -108 0 -109 0 -3 110 -3 111 54 0 c114 2 153 74 63 117 -26 12 -37 12 -66 1 -57 -21 -70 -18 -70 15 0 44 25 56 111 55 41 -1 77 -3 81 -3z m361 -15 c38 -25 59 -88 58 -176 0 -41 -2 -86 -4 -100 -3 -14 -5 -30 -6 -37 -2 -19 -54 -71 -81 -81 -14 -5 -36 -8 -50 -6 -14 1 -32 3 -40 3 -22 1 -100 76 -102 98 -7 84 -2 211 9 233 7 14 13 30 13 37 0 6 11 20 24 30 31 25 140 24 179 -1z m479 15 c3 -1 15 -16 26 -35 30 -51 24 -123 -14 -150 -40 -29 -99 -30 -132 -1 -24 21 -27 30 -27 84 0 55 3 63 29 84 25 21 63 26 118 18z m-226 -225 c29 -28 38 -75 24 -126 -9 -34 -18 -44 -48 -57 -40 -17 -99 -6 -122 22 -15 18 -21 111 -9 142 19 51 112 62 155 19z"/>
 <path d="M1133 1336 c-15 -7 -23 -19 -23 -37 0 -14 -3 -29 -6 -32 -10 -10 -11 -138 -1 -144 5 -3 6 -11 3 -19 -6 -16 27 -54 47 -54 16 0 41 27 51 55 10 25 10 163 1 190 -4 11 -8 25 -10 31 -5 16 -37 21 -62 10z"/>
 <path d="M1649 1333 c-12 -31 -1 -84 18 -90 7 -3 18 8 26 24 13 24 13 33 2 61 -17 39 -32 41 -46 5z"/>
 <path d="M1402 1130 c-23 -37 -4 -90 32 -90 13 0 16 11 16 55 0 46 -3 55 -18 55 -9 0 -23 -9 -30 -20z"/>
 <path d="M0 515 l0 -515 534 0 c346 0 537 4 541 10 4 6 -9 10 -31 10 -20 0 -55 5 -78 11 -22 6 -59 15 -81 21 -22 5 -48 14 -57 19 -10 5 -24 9 -31 9 -7 0 -41 14 -75 30 -34 17 -64 30 -66 30 -3 0 -29 15 -58 32 -218 133 -374 300 -479 515 -52 104 -99 253 -99 310 0 18 -4 33 -10 33 -7 0 -10 -178 -10 -515z"/>
 <path d="M2456 993 c-32 -184 -135 -400 -259 -546 -58 -69 -73 -84 -142 -146 -87 -78 -273 -187 -385 -225 -87 -29 -200 -56 -235 -56 -19 0 -35 -4 -35 -10 0 -7 185 -10 535 -10 l535 0 0 515 c0 283 -2 515 -4 515 -2 0 -7 -17 -10 -37z"/>
 </g>
<g id="layer107" fill="#fffffe" stroke="none">
 <path d="M1 1883 c1 -274 3 -489 5 -478 51 243 151 432 324 612 160 165 351 273 605 342 l70 20 -502 0 -503 1 1 -497z"/>
 <path d="M1550 2356 c163 -44 314 -116 459 -218 71 -51 208 -196 267 -285 90 -135 165 -308 187 -433 2 -14 5 197 6 468 l1 492 -502 -1 -503 0 85 -23z"/>
 <path d="M1123 2267 c-3 -5 -17 -7 -31 -6 -15 2 -32 1 -37 -2 -6 -3 -37 -11 -70 -18 -137 -30 -319 -107 -408 -175 -180 -136 -266 -237 -351 -409 -36 -71 -64 -145 -77 -202 -11 -49 -23 -97 -26 -105 -3 -8 -5 -32 -4 -52 2 -21 -1 -43 -5 -49 -8 -14 -9 -87 0 -109 3 -8 7 -46 10 -85 2 -38 6 -77 9 -85 3 -8 15 -49 27 -90 29 -95 97 -226 163 -314 29 -38 58 -80 65 -92 7 -13 17 -24 23 -24 5 0 24 -14 42 -31 93 -91 260 -193 392 -239 99 -34 226 -61 287 -60 31 1 59 -4 63 -10 8 -13 72 -13 80 1 4 6 30 10 59 8 28 -1 58 1 66 4 8 3 33 8 55 12 181 29 413 144 551 272 65 61 167 179 187 218 53 99 116 235 122 265 4 19 12 46 18 60 5 14 12 52 14 85 2 33 6 67 9 75 9 23 12 174 4 185 -4 6 -10 28 -13 50 -69 468 -461 849 -937 910 -30 4 -58 9 -63 12 -14 8 -219 8 -224 0z m336 -884 c17 -21 31 -42 31 -47 0 -5 6 -14 14 -20 29 -23 237 -317 231 -326 -3 -6 -17 -10 -31 -10 -18 0 -36 16 -72 61 -26 33 -54 73 -62 87 -8 15 -20 31 -26 37 -30 27 -175 236 -169 245 14 22 54 9 84 -27z m-577 18 c19 -3 70 -62 78 -92 11 -37 5 -85 -13 -110 -21 -28 -65 -51 -86 -44 -10 3 -22 1 -26 -5 -4 -6 -15 -8 -25 -5 -14 5 -19 -1 -22 -30 -6 -49 9 -58 85 -53 l64 4 -2 -36 -3 -35 -108 0 -109 0 -3 110 -3 111 54 0 c114 2 153 74 63 117 -26 12 -37 12 -66 1 -57 -21 -70 -18 -70 15 0 44 25 56 111 55 41 -1 77 -3 81 -3z m361 -15 c38 -25 59 -88 58 -176 0 -41 -2 -86 -4 -100 -3 -14 -5 -30 -6 -37 -2 -19 -54 -71 -81 -81 -14 -5 -36 -8 -50 -6 -14 1 -32 3 -40 3 -22 1 -100 76 -102 98 -7 84 -2 211 9 233 7 14 13 30 13 37 0 6 11 20 24 30 31 25 140 24 179 -1z m479 15 c3 -1 15 -16 26 -35 30 -51 24 -123 -14 -150 -40 -29 -99 -30 -132 -1 -24 21 -27 30 -27 84 0 55 3 63 29 84 25 21 63 26 118 18z m-226 -225 c29 -28 38 -75 24 -126 -9 -34 -18 -44 -48 -57 -40 -17 -99 -6 -122 22 -15 18 -21 111 -9 142 19 51 112 62 155 19z"/>
 <path d="M1133 1336 c-15 -7 -23 -19 -23 -37 0 -14 -3 -29 -6 -32 -10 -10 -11 -138 -1 -144 5 -3 6 -11 3 -19 -6 -16 27 -54 47 -54 16 0 41 27 51 55 10 25 10 163 1 190 -4 11 -8 25 -10 31 -5 16 -37 21 -62 10z"/>
 <path d="M1649 1333 c-12 -31 -1 -84 18 -90 7 -3 18 8 26 24 13 24 13 33 2 61 -17 39 -32 41 -46 5z"/>
 <path d="M1402 1130 c-23 -37 -4 -90 32 -90 13 0 16 11 16 55 0 46 -3 55 -18 55 -9 0 -23 -9 -30 -20z"/>
 <path d="M1 503 l-1 -503 518 1 c325 1 500 4 472 10 -127 25 -297 91 -425 167 -77 45 -265 202 -265 221 0 4 -17 26 -38 47 -113 119 -229 361 -255 534 -3 14 -5 -201 -6 -477z"/>
 <path d="M2459 973 c-1 -5 -1 -12 0 -16 1 -9 -23 -99 -44 -162 -41 -123 -150 -297 -255 -409 -65 -68 -198 -178 -255 -210 -16 -9 -49 -28 -73 -41 -63 -35 -194 -84 -297 -111 l-90 -23 513 -1 512 0 0 490 c0 270 -2 490 -5 490 -3 0 -6 -3 -6 -7z"/>
 </g>

</svg>